Coordinates
version=1
nRows=4
nColumns=107
inDegrees=yes

Units are S.I. units (second, meters, Newtons, ...)
If the header above contains a line with 'inDegrees', this indicates whether rotational values are in degrees (yes) or radians (no).

endheader
time	sternoclavicular_r2	sternoclavicular_r3	unrotscap_r3	unrotscap_r2	acromioclavicular_r2	acromioclavicular_r3	acromioclavicular_r1	unrothum_r1	unrothum_r3	unrothum_r2	elv_angle	shoulder_elv	shoulder1_r2	shoulder_rot	elbow_flexion	pro_sup	deviation	flexion	proximal_distal_r1	proximal_distal_r3	cmc_flexion	cmc_abduction	mp_flexion	ip_flexion	mcp2_flexion	mcp2_abduction	pm2_flexion	md2_flexion	mcp3_flexion	mcp3_abduction	pm3_flexion	md3_flexion	mcp4_flexion	mcp4_abduction	pm4_flexion	md4_flexion	mcp5_flexion	mcp5_abduction	pm5_flexion	md5_flexion	bicpt_tx	bicpt_ty	bicpt_tz	bicpt2_tx	bicpt2_ty	bicpt2_tz	ptpt_tx	ptpt_ty	ptpt_tz	FCUpt_tx	FCUpt_ty	FCUpt_tz	EDCpt_tx	EDCpt_ty	EDCpt_tz	APLpt_tx	APLpt_ty	APLpt_tz	FPLpt_tx	FPLpt_ty	FPLpt_tz	FPLpt2_tx	FPLpt2_ty	FPLpt2_tz	PEC1pt2_tx	PEC1pt2_ty	PEC1pt2_tz	PEC1pt3_tx	PEC1pt3_ty	PEC1pt3_tz	PEC2pt2_tx	PEC2pt2_ty	PEC2pt2_tz	PEC2pt3_tx	PEC2pt3_ty	PEC2pt3_tz	PEC3pt2_tx	PEC3pt2_ty	PEC3pt2_tz	PEC3pt3_tx	PEC3pt3_ty	PEC3pt3_tz	DELT2pt2a_tx	DELT2pt2a_ty	DELT2pt2a_tz	DELT2pt2_tx	DELT2pt2_ty	DELT2pt2_tz	LAT1pt2_tx	LAT1pt2_ty	LAT1pt2_tz	LAT1pt3_tx	LAT1pt3_ty	LAT1pt3_tz	LAT2pt2_tx	LAT2pt2_ty	LAT2pt2_tz	LAT2pt3_tx	LAT2pt3_ty	LAT2pt3_tz	LAT3pt2_tx	LAT3pt2_ty	LAT3pt2_tz	LAT3pt3_tx	LAT3pt3_ty	LAT3pt3_tz
      0.56666667	     -0.32159209	      0.13621123	     -0.13621123	      0.32159209	     -0.06511586	      0.52624345	      0.23654281	     -0.23654281	     -0.52624345	      0.06511586	     99.56313878	     76.13978640	     -1.73770459	    -23.79183034	     27.99485178	     24.24797392	      0.07005574	     -0.74550269	      0.09105842	     -0.37275134	     -2.88483308	      1.45916686	    -31.37692838	    -38.02244395	      1.61096544	     12.27046009	     12.04221845	    -26.35973653	     52.09196043	      7.12574539	     84.53088851	     61.34876792	     44.57353515	     -3.41970941	     89.88784907	     39.26079212	     17.59846650	    -13.24711922	    -21.30881617	      4.79955293	      0.00082598	     -0.03080864	     -0.00481683	      0.01626117	     -0.01780494	     -0.00897765	      0.00575835	     -0.06605851	     -0.00200330	      0.00623263	     -0.18378752	     -0.00018117	     -0.00290975	      0.00077776	      0.00019227	      0.00029732	      0.00011893	      0.00059464	      0.00038057	      0.00114171	      0.00064221	     -0.00015106	      0.00007674	      0.00009209	      0.00249570	      0.00875608	      0.00609119	     -0.00816388	      0.01971176	     -0.01869656	      0.00249570	      0.00875608	      0.00609119	      0.00054990	      0.01827356	     -0.00960208	      0.00394691	      0.00486915	      0.01596512	      0.00000000	      0.00775301	      0.00000000	     -0.00714869	     -0.03303624	     -0.00639256	      0.01586819	     -0.00055115	     -0.00472475	     -0.00088830	      0.01488957	     -0.00609119	      0.00245340	      0.02148836	     -0.01776597	     -0.00596429	      0.01290147	     -0.00545669	     -0.01243618	      0.02724115	     -0.03049824	     -0.02334955	      0.01442427	     -0.00731789	     -0.01548177	      0.03147114	     -0.03811223
      0.60000000	     -0.32326047	      0.13691788	     -0.13691788	      0.32326047	     -0.06545367	      0.52897353	      0.23776996	     -0.23776996	     -0.52897353	      0.06545367	     99.18420739	     76.53478865	     -1.73109098	    -21.67889298	     27.88951675	     22.10659801	      0.07588152	     -0.75537868	      0.09826894	     -0.37768934	     -2.92605712	      1.10152408	    -31.29036661	    -37.79669901	      1.48634615	     12.29488565	     12.13698274	    -26.82482435	     52.15902489	      6.91484050	     84.50918958	     61.29330573	     44.61107909	     -3.41131550	     89.70419648	     39.40073994	     17.52305314	    -13.18872410	    -20.95439228	      4.80180347	      0.00082250	     -0.03079656	     -0.00481488	      0.01617474	     -0.01777632	     -0.00915572	      0.00591657	     -0.06595620	     -0.00183081	      0.00602816	     -0.18382183	     -0.00013884	     -0.00265279	      0.00070177	      0.00018811	      0.00029503	      0.00011801	      0.00059006	      0.00037764	      0.00113291	      0.00063726	     -0.00015429	      0.00007791	      0.00009349	      0.00250864	      0.00880151	      0.00612279	     -0.00820624	      0.01981402	     -0.01879356	      0.00250864	      0.00880151	      0.00612279	      0.00055275	      0.01836836	     -0.00965190	      0.00396184	      0.00489441	      0.01600152	      0.00000000	      0.00783423	      0.00000000	     -0.00718577	     -0.03320762	     -0.00645999	      0.01472622	     -0.00048405	     -0.00390297	     -0.00089291	      0.01496682	     -0.00612279	      0.00246612	      0.02159984	     -0.01785813	     -0.00599523	      0.01296841	     -0.00548500	     -0.01250069	      0.02738247	     -0.03065646	     -0.02347069	      0.01449910	     -0.00735585	     -0.01556209	      0.03163441	     -0.03830995
      0.63333333	     -0.32371453	      0.13711019	     -0.13711019	      0.32371453	     -0.06554561	      0.52971654	      0.23810394	     -0.23810394	     -0.52971654	      0.06554561	     99.06455471	     76.64229129	     -1.72900265	    -21.06252809	     27.90128824	     21.35981177	      0.07777063	     -0.75813539	      0.10059514	     -0.37906770	     -3.23077340	      1.08915722	    -30.76885765	    -38.17899581	      1.63915773	     12.24305756	     12.22479948	    -28.11977787	     52.06459785	      6.85973013	     84.35956648	     62.58324457	     44.25645760	     -3.42928126	     89.85018920	     39.52136248	     17.39089855	    -13.18134694	    -20.88999415	      4.82786141	      0.00082289	     -0.03079791	     -0.00481510	      0.01614214	     -0.01777952	     -0.00921632	      0.00597175	     -0.06592052	     -0.00177065	      0.00595719	     -0.18383349	     -0.00012326	     -0.00256317	      0.00067560	      0.00018608	      0.00029434	      0.00011774	      0.00058868	      0.00037676	      0.00113027	      0.00063578	     -0.00017913	      0.00008656	      0.00010387	      0.00251217	      0.00881387	      0.00613139	     -0.00821776	      0.01984185	     -0.01881996	      0.00251217	      0.00881387	      0.00613139	      0.00055353	      0.01839417	     -0.00966545	      0.00396589	      0.00490128	      0.01601136	      0.00000000	      0.00785642	      0.00000000	     -0.00719587	     -0.03325427	     -0.00647840	      0.01438184	     -0.00046479	     -0.00367587	     -0.00089416	      0.01498784	     -0.00613139	      0.00246959	      0.02163018	     -0.01788322	     -0.00600365	      0.01298662	     -0.00549270	     -0.01251825	      0.02742093	     -0.03069952	     -0.02350366	      0.01451947	     -0.00736618	     -0.01558395	      0.03167884	     -0.03836376
      0.66666667	     -0.32351104	      0.13702401	     -0.13702401	      0.32351104	     -0.06550441	      0.52938356	      0.23795427	     -0.23795427	     -0.52938356	      0.06550441	     99.14606218	     76.59411457	     -1.73042523	    -21.40504633	     27.86047209	     21.90287314	      0.07691383	     -0.75868682	      0.09954127	     -0.37934341	     -2.90784811	      0.88525457	    -31.32159529	    -38.20879823	      1.29357666	     12.25194417	     12.63638780	    -27.22531983	     52.05693089	      7.11014817	     84.57752588	     61.38568217	     44.66418742	     -3.23480104	     89.65534031	     39.54831429	     17.81385580	    -13.17540886	    -21.13401006	      4.79446928	      0.00082154	     -0.03079324	     -0.00481435	      0.01616602	     -0.01776843	     -0.00917236	      0.00593162	     -0.06594647	     -0.00181439	      0.00600878	     -0.18382504	     -0.00013465	     -0.00262834	      0.00069461	      0.00018760	      0.00029420	      0.00011768	      0.00058841	      0.00037658	      0.00112974	      0.00063548	     -0.00015252	      0.00007737	      0.00009285	      0.00251059	      0.00880833	      0.00612753	     -0.00821260	      0.01982938	     -0.01880813	      0.00251059	      0.00880833	      0.00612753	      0.00055318	      0.01838260	     -0.00965938	      0.00396408	      0.00489820	      0.01600695	      0.00000000	      0.00784647	      0.00000000	     -0.00719134	     -0.03323336	     -0.00647015	      0.01457384	     -0.00047548	     -0.00380136	     -0.00089360	      0.01497842	     -0.00612753	      0.00246803	      0.02161658	     -0.01787198	     -0.00599988	      0.01297846	     -0.00548925	     -0.01251038	      0.02740370	     -0.03068022	     -0.02348888	      0.01451034	     -0.00736155	     -0.01557415	      0.03165893	     -0.03833964
